<svg id="book-icon" xmlns="http://www.w3.org/2000/svg" viewBox="0 0 257.51 227.87">
  <defs>
    <style>
      .cls-1, .cls-2 {
        fill: none;
        stroke: #000;
        stroke-width: 5.51px;
      }

      .cls-2 {
        stroke-linecap: round;
      }
    </style>
  </defs>
  <title>book-icon-strokes</title>
  <g id="left-page">
    <path id="page" class="cls-1" d="M126,223.79S91.68,210,63.67,205.31a194.92,194.92,0,0,0-60.92.11V2.82a354.68,354.68,0,0,1,65,8.62c26,6.18,42.58,14.76,42.58,14.76,12.71,6,15.67,14.58,15.67,23.68Z"/>
    <path id="line-5" class="cls-2" d="M109.39,182.31S85,168.47,65.1,163.84a99.12,99.12,0,0,0-43.27.1"/>
    <path id="line-4" class="cls-2" d="M109.39,152.92S85,139.09,65.1,134.45a99,99,0,0,0-43.27.11"/>
    <path id="line-3" class="cls-2" d="M109.39,123.54S85,109.7,65.1,105.06a99.21,99.21,0,0,0-43.27.11"/>
    <path id="line-2" class="cls-2" d="M109.39,94.15S85,80.31,65.1,75.68a99,99,0,0,0-43.27.11"/>
    <path id="line-1" class="cls-2" d="M109.39,61.09S85,47.25,65.1,42.62a99,99,0,0,0-43.27.11"/>
  </g>
  <g id="right-page">
    <path id="page-2" data-name="page" class="cls-1" d="M131.48,223.79s34.35-13.84,62.36-18.48a194.84,194.84,0,0,1,60.91.11V2.82a354.62,354.62,0,0,0-65,8.62c-26,6.18-42.58,14.76-42.58,14.76-12.71,6-15.67,14.58-15.67,23.68Z"/>
    <path id="line-5-2" data-name="line-5" class="cls-2" d="M148.12,182.31s24.4-13.84,44.29-18.47a99.12,99.12,0,0,1,43.27.1"/>
    <path id="line-4-2" data-name="line-4" class="cls-2" d="M148.12,152.92s24.4-13.83,44.29-18.47a99,99,0,0,1,43.27.11"/>
    <path id="line-3-2" data-name="line-3" class="cls-2" d="M148.12,123.54s24.4-13.84,44.29-18.48a99.21,99.21,0,0,1,43.27.11"/>
    <path id="line-2-2" data-name="line-2" class="cls-2" d="M148.12,94.15s24.4-13.84,44.29-18.47a99,99,0,0,1,43.27.11"/>
    <path id="line-1-2" data-name="line-1" class="cls-2" d="M148.12,61.09s24.4-13.84,44.29-18.47a99,99,0,0,1,43.27.11"/>
  </g>
</svg>
