<svg id="book-icon" xmlns="http://www.w3.org/2000/svg" viewBox="0 0 257.51 227.87">
  <title>book-icon-outlined</title>
  <path id="pages" d="M254.69.07c-.32,0-32.64.85-65.6,8.69-25.57,6.08-42,14.35-43.16,15-14.43,6.8-16.92,17-17.17,24.63-.26-7.63-2.75-17.83-17.18-24.63-1.2-.62-17.59-8.89-43.16-15C35.46.92,3.14.07,2.82.07L0,0V208.75l3.27-.62a193.19,193.19,0,0,1,60-.1c27.38,4.53,61.44,18.17,61.78,18.31l3.73,1.51v0h.05v0l3.73-1.51c.34-.14,34.39-13.78,61.78-18.31a193.66,193.66,0,0,1,60,.1l3.27.61V0ZM123.27,219.76c-9.76-3.71-36.6-13.43-59.15-17.17a187,187,0,0,0-30.31-2.39,198.09,198.09,0,0,0-28.3,2V5.68c8.49.4,34.85,2.07,61.63,8.44,25.3,6,41.79,14.44,42,14.53l.1,0c12.41,5.83,14.08,14,14.08,21.19ZM252,202.18a198.58,198.58,0,0,0-58.61.41c-22.54,3.74-49.39,13.46-59.15,17.17V49.88c0-7.2,1.67-15.36,14.08-21.19l.1,0c.16-.09,16.59-8.5,42-14.53,26.78-6.37,53.14-8,61.63-8.44Z" transform="translate(0 0)"/>
  <path id="left-5" d="M110.74,179.92c-1-.58-25-14.09-45-18.77a101,101,0,0,0-44.6.13,2.76,2.76,0,0,0,1.42,5.33,97,97,0,0,1,41.93-.09c19.27,4.49,43.32,18,43.56,18.19a2.75,2.75,0,1,0,2.71-4.79Z" transform="translate(0 0)"/>
  <path id="left-4" d="M110.74,150.53c-1-.57-25-14.09-45-18.76a100.81,100.81,0,0,0-44.6.13,2.75,2.75,0,0,0,1.42,5.32,97.32,97.32,0,0,1,41.93-.09c19.27,4.49,43.32,18.05,43.56,18.19a2.75,2.75,0,1,0,2.71-4.79Z" transform="translate(0 0)"/>
  <path id="left-3" d="M110.74,121.14c-1-.57-25-14.09-45-18.76a101,101,0,0,0-44.6.13,2.75,2.75,0,1,0,1.42,5.32,96.77,96.77,0,0,1,41.93-.08c19.27,4.49,43.32,18,43.56,18.18a2.66,2.66,0,0,0,1.35.36,2.75,2.75,0,0,0,1.36-5.15Z" transform="translate(0 0)"/>
  <path id="left-2" d="M110.74,91.76c-1-.58-25-14.09-45-18.76a100.9,100.9,0,0,0-44.6.12,2.76,2.76,0,0,0,1.42,5.33,97,97,0,0,1,41.93-.09c19.27,4.49,43.32,18,43.56,18.19a2.75,2.75,0,0,0,2.71-4.79Z" transform="translate(0 0)"/>
  <path id="left-1" d="M110.74,58.7c-1-.58-25-14.09-45-18.76a100.9,100.9,0,0,0-44.6.12,2.76,2.76,0,0,0,1.42,5.33,96.86,96.86,0,0,1,41.93-.09C83.74,49.79,107.79,63.35,108,63.49a2.75,2.75,0,1,0,2.71-4.79Z" transform="translate(0 0)"/>
  <path id="right-5" d="M236.39,161.28a101,101,0,0,0-44.6-.13c-20,4.68-44,18.19-45,18.77a2.75,2.75,0,1,0,2.71,4.79c.24-.14,24.28-13.7,43.56-18.19a97,97,0,0,1,41.93.09,2.76,2.76,0,0,0,1.42-5.33Z" transform="translate(0 0)"/>
  <path id="right-4" d="M236.39,131.9a101,101,0,0,0-44.6-.13c-20,4.67-44,18.19-45,18.76a2.75,2.75,0,1,0,2.71,4.79c.24-.14,24.28-13.69,43.56-18.19a97.13,97.13,0,0,1,41.93.09,2.75,2.75,0,1,0,1.42-5.32Z" transform="translate(0 0)"/>
  <path id="right-3" d="M236.39,102.51a101,101,0,0,0-44.6-.13c-20,4.67-44,18.19-45,18.76a2.75,2.75,0,0,0,1.36,5.15,2.66,2.66,0,0,0,1.35-.36c.24-.13,24.28-13.69,43.56-18.18a97.23,97.23,0,0,1,41.93.08,2.75,2.75,0,1,0,1.42-5.32Z" transform="translate(0 0)"/>
  <path id="right-2" d="M236.39,73.12a100.9,100.9,0,0,0-44.6-.12c-20,4.67-44,18.18-45,18.76a2.75,2.75,0,1,0,2.71,4.79c.24-.14,24.28-13.7,43.56-18.19a97.13,97.13,0,0,1,41.93.09,2.76,2.76,0,0,0,1.42-5.33Z" transform="translate(0 0)"/>
  <path id="right-1" d="M145.73,62.45a2.74,2.74,0,0,0,3.75,1c.24-.14,24.28-13.7,43.56-18.19a97.13,97.13,0,0,1,41.93.09,2.76,2.76,0,0,0,1.42-5.33,100.9,100.9,0,0,0-44.6-.12c-20,4.67-44,18.18-45,18.76A2.75,2.75,0,0,0,145.73,62.45Z" transform="translate(0 0)"/>
</svg>
